
        <svg xmlns="http://www.w3.org/2000/svg" xmlns:xlink="http://www.w3.org/1999/xlink" version="1.1" width="3187.5" height="1004.3591612890751" viewBox="0 0 3187.5 1004.3591612890751">
			
			<g transform="scale(9.375) translate(10, 10)">
				<defs id="SvgjsDefs2485"/><g id="SvgjsG2486" featureKey="nameFeature-0" transform="matrix(1.7420914613966556,0,0,1.7420914613966556,-2.1706115768165946,-17.78396607844675)" fill="#fff"><path d="M8.9656 39.3764 c0.18602 0 0.31562 0.12922 0.31562 0.30723 c0 0.18641 -0.12961 0.31602 -0.31562 0.31602 l-7.404 0 c-0.18602 0 -0.31562 -0.12961 -0.31562 -0.31602 c0 -0.17801 0.12961 -0.30762 0.31562 -0.30762 l1.036 0 c0.5812 0 0.96244 -0.4356 0.96244 -0.9236 l0 -23.263 c0 -0.4888 -0.37961 -0.9268 -0.96244 -0.9268 l-1.036 0 c-0.18602 0 -0.31562 -0.12961 -0.31562 -0.30762 c0 -0.18641 0.12961 -0.31602 0.31562 -0.31602 l7.404 0 c0.18602 0 0.31562 0.12961 0.31562 0.31602 c0 0.17801 -0.12961 0.30762 -0.31562 0.30762 l-1.036 0 c-0.5812 0 -0.96244 0.438 -0.96244 0.9236 l0 23.263 c0 0.4872 0.37961 0.9272 0.96244 0.9272 l1.036 0 z M14.1532 11.168 c0.0484 -0.596 -0.42732 -0.9596 -0.91968 -0.9596 s-0.93636 0.36398 -0.91996 0.96 l0.4344 11.234 c0.016406 0.30762 0.25082 0.47724 0.48524 0.47724 c0.21078 0 0.4536 -0.16961 0.462 -0.48564 z M31.208 40.1448 l-0.75596 -0.00035156 l-10.243 -24.62 l0 22.896 c0 0.498 0.36961 0.956 0.96404 0.956 l1.036 0 c0.18641 0 0.31602 0.12961 0.31602 0.31602 c0 0.17801 -0.12961 0.30762 -0.31602 0.30762 l-4.6896 0 c-0.18602 0 -0.31562 -0.12961 -0.31562 -0.30762 c0 -0.18641 0.12961 -0.31602 0.31562 -0.31602 l1.036 0 c0.5944 0 0.96404 -0.458 0.96404 -0.956 l0 -23.201 c0 -0.498 -0.36961 -0.956 -0.96404 -0.956 l-1.036 0 c-0.18602 0 -0.31562 -0.12961 -0.31562 -0.31562 c0 -0.17801 0.12961 -0.30762 0.31562 -0.30762 l5.564 0 l9.144 21.978 l8.5636 -21.978 l5.48 0 c0.18602 0 0.31562 0.12961 0.31562 0.31602 c0 0.17801 -0.12961 0.30762 -0.31562 0.30762 l-1.036 0 c-0.5944 0 -0.96404 0.458 -0.96404 0.956 l0 23.201 c0 0.498 0.36961 0.956 0.96404 0.956 l1.036 0 c0.18602 0 0.31562 0.12961 0.31562 0.30762 c0 0.18641 -0.12961 0.31602 -0.31562 0.31602 l-7.4056 0 c-0.18641 0 -0.31602 -0.12961 -0.31602 -0.31602 c0 -0.17801 0.12961 -0.30762 0.31602 -0.30762 l1.036 0 c0.5904 0 0.9592 -0.4512 0.964 -0.946 l0 -23.123 z M82.938 39.3764 c0.17801 0 0.31524 0.12961 0.31524 0.31602 c0 0.17801 -0.13801 0.30762 -0.31602 0.30762 l-9.0068 0 c-0.17801 0 -0.31602 -0.12961 -0.31602 -0.30762 c0 -0.18641 0.13801 -0.31602 0.31602 -0.31602 l1.44 0 c0.804 0 1.2548 -0.606 0.95996 -1.4 l-2.478 -6.498 l-10.209 0 l-2.5116 6.498 c-0.28 0.7232 0.16078 1.4 0.96 1.4 l1.44 0 c0.17801 0 0.31602 0.12961 0.31602 0.31602 c0 0.17801 -0.13801 0.30762 -0.31602 0.30762 l-5.9212 0 c-0.17801 0 -0.31602 -0.12961 -0.31602 -0.30762 c0 -0.18641 0.13801 -0.31602 0.31602 -0.31602 l0.96 0 c1.04 0 1.5116 -0.52 1.84 -1.4 l9.5228 -24.482 l0.75602 0 l9.4084 24.522 c0.2884 0.72 0.84 1.36 1.96 1.36 l0.88 0 z M63.893600000000006 30.8632 l9.7316 0 l-4.8296 -12.664 z M106.923 13.64 c0.18641 0 0.31606 0.12891 0.31606 0.30692 c0 0.18602 -0.12961 0.31562 -0.31562 0.31562 l-1.036 0 c-0.5944 0 -0.96404 0.458 -0.96404 0.956 l0 24.781 l-1.5836 0 l-15.65 -22.964 l0 21.385 c0 0.498 0.36961 0.956 0.96404 0.956 l1.036 0 c0.18641 0 0.31602 0.12961 0.31602 0.31602 c0 0.17801 -0.12961 0.30762 -0.31602 0.30762 l-4.6896 0 c-0.18602 0 -0.31562 -0.12961 -0.31562 -0.30762 c0 -0.18641 0.12961 -0.31602 0.31562 -0.31602 l1.036 0 c0.5944 0 0.96404 -0.458 0.96404 -0.956 l0 -23.201 c0 -0.498 -0.36961 -0.956 -0.96404 -0.956 l-1.036 0 c-0.18602 0 -0.31562 -0.12961 -0.31562 -0.31562 c0 -0.17801 0.12961 -0.30762 0.31562 -0.30762 l4.3612 0 l14.872 21.816 l0 -20.236 c0 -0.498 -0.36961 -0.956 -0.96404 -0.956 l-1.036 0 c-0.18641 0 -0.31602 -0.12961 -0.31602 -0.31562 c0 -0.17801 0.12961 -0.30762 0.31602 -0.30762 l4.6896 0 z M118.97899999999998 13.64 c8.334 0 14.714 3.3209 14.714 13.001 c0 7.6 -5.662 13.36 -14.716 13.36 l-8.9376 0 c-0.18602 0 -0.31562 -0.12961 -0.31562 -0.31602 c0 -0.17801 0.12961 -0.30762 0.31562 -0.30762 l1.036 0 c0.5812 0 0.96244 -0.438 0.96244 -0.9236 l0 -23.263 c0 -0.4872 -0.37961 -0.9272 -0.96244 -0.9272 l-1.036 0 c-0.18602 0 -0.31562 -0.12961 -0.31562 -0.30762 c0 -0.18641 0.12961 -0.31602 0.31562 -0.31602 l8.9392 0 z M118.978 39.37728 c5.7144 0 11.1 -4.4572 11.1 -12.737 c0 -8.36 -4.9436 -12.376 -11.098 -12.376 l-2.5712 0 c-0.5812 0 -0.96244 0.438 -0.96244 0.9236 l0 23.263 c0 0.4872 0.37961 0.9272 0.96244 0.9272 l2.5696 0 z M158.552 38.3256 c0.16961 0 0.27402 0.12121 0.27402 0.28242 c0 0.4764 -1.4376 1.6456 -3.2868 1.6456 c-7.8888 0 -0.2584 -12.982 -11.284 -12.982 l-1.4088 0 l0 11.178 c0 0.4872 0.37961 0.9272 0.96244 0.9272 l1.036 0 c0.18602 0 0.31562 0.12961 0.31562 0.30762 c0 0.18641 -0.12961 0.31602 -0.31562 0.31602 l-7.404 0 c-0.18602 0 -0.31562 -0.12961 -0.31562 -0.31602 c0 -0.17801 0.12961 -0.30762 0.31562 -0.30762 l1.036 0 c0.5812 0 0.96244 -0.4356 0.96244 -0.9236 l0 -23.263 c0 -0.4888 -0.37961 -0.9268 -0.96244 -0.9268 l-1.036 0 c-0.18602 0 -0.31562 -0.12961 -0.31562 -0.30762 c0 -0.18641 0.12961 -0.31602 0.31562 -0.31602 l8.7668 0 c5.302 0 8.884 2.084 8.884 6.324 c0 3.74 -2.9232 6.3052 -7.8424 6.944 c10.44 1.44 5.3708 12.35 9.3124 12.35 c1.2372 0 1.604 -0.9324 1.9904 -0.9324 z M142.846 26.64 l2.1476 0.00039062 c4.9436 0 6.538 -3.516 6.538 -6.6264 c0 -3.5616 -1.7188 -5.7504 -6.2276 -5.7504 l-1.4956 0 c-0.5812 0 -0.96244 0.438 -0.96244 0.9236 l0 11.453 z M184.61800000000002 39.3764 c0.17801 0 0.31524 0.12961 0.31524 0.31602 c0 0.17801 -0.13801 0.30762 -0.31602 0.30762 l-9.0068 0 c-0.17801 0 -0.31602 -0.12961 -0.31602 -0.30762 c0 -0.18641 0.13801 -0.31602 0.31602 -0.31602 l1.44 0 c0.804 0 1.2548 -0.606 0.95996 -1.4 l-2.478 -6.498 l-10.209 0 l-2.5116 6.498 c-0.28 0.7232 0.16078 1.4 0.96 1.4 l1.44 0 c0.17801 0 0.31602 0.12961 0.31602 0.31602 c0 0.17801 -0.13801 0.30762 -0.31602 0.30762 l-5.9212 0 c-0.17801 0 -0.31602 -0.12961 -0.31602 -0.30762 c0 -0.18641 0.13801 -0.31602 0.31602 -0.31602 l0.96 0 c1.04 0 1.5116 -0.52 1.84 -1.4 l9.5228 -24.482 l0.75602 0 l9.4084 24.522 c0.2884 0.72 0.84 1.36 1.96 1.36 l0.88 0 z M165.5736 30.8632 l9.7316 0 l-4.8296 -12.664 z"/></g><g id="SvgjsG2487" featureKey="sloganFeature-0" transform="matrix(1.1263859935075027,0,0,1.1263859935075027,39.29919619000832,64.45884665431569)" fill="#fff"><path d="M0.78 6.82 l8.4376 0.000019531 l0 3.4848 c0 0.093204 -0.064804 0.15801 -0.15781 0.15801 c-0.089004 0 -0.15381 -0.064804 -0.15381 -0.15801 l0 -0.80961 c0 -1.38 -0.82 -2.3634 -2.46 -2.3634 l-2.4822 0 c-0.2906 0 -0.48122 0.219 -0.48122 0.4618 l0 5.3726 l1.65 0 c1.6304 0 1.8112 -0.5676 1.8112 -1.4958 l0 -0.18279 c0 -0.089004 0.069004 -0.15801 0.15801 -0.15801 s0.15801 0.069004 0.15801 0.15801 l0 3.6772 c0 0.089004 -0.069004 0.15801 -0.15801 0.15801 s-0.15801 -0.064804 -0.15801 -0.17041 l0 -0.19859 c0 -0.8918 -0.1724 -1.4676 -1.811 -1.4676 l-1.65 0 l0 5.9386 c0 0.2436 0.1898 0.4636 0.48122 0.4636 l1.1172 0 c0.093204 0 0.15801 0.064804 0.15801 0.15801 c0 0.089004 -0.064804 0.15381 -0.15801 0.15381 l-4.3012 0 c-0.093008 0 -0.15781 -0.064804 -0.15781 -0.15801 c0 -0.089004 0.064804 -0.15381 0.15781 -0.15381 l0.51801 0 c0.2906 0 0.48122 -0.2178 0.48122 -0.4618 l0 -11.631 c0 -0.2444 -0.1898 -0.4634 -0.48122 -0.4634 l-0.51801 0 c-0.093008 0 -0.15781 -0.064804 -0.15781 -0.15381 c0 -0.093204 0.064804 -0.15801 0.15781 -0.15801 z M21.796 19.1628 c0.084804 0 0.13701 0.060606 0.13701 0.14121 c0 0.2382 -0.7188 0.82282 -1.6434 0.82282 c-3.9444 0 -0.1292 -6.491 -5.642 -6.491 l-0.70439 0 l0 5.589 c0 0.2436 0.1898 0.4636 0.48122 0.4636 l0.51801 0 c0.093008 0 0.15781 0.064804 0.15781 0.15381 c0 0.093204 -0.064804 0.15801 -0.15781 0.15801 l-3.702 0 c-0.093008 0 -0.15781 -0.064804 -0.15781 -0.15801 c0 -0.089004 0.064804 -0.15381 0.15781 -0.15381 l0.51801 0 c0.2906 0 0.48122 -0.2178 0.48122 -0.4618 l0 -11.631 c0 -0.2444 -0.1898 -0.4634 -0.48122 -0.4634 l-0.51801 0 c-0.093008 0 -0.15781 -0.064804 -0.15781 -0.15381 c0 -0.093204 0.064804 -0.15801 0.15781 -0.15801 l4.3834 0 c2.651 0 4.442 1.042 4.442 3.162 c0 1.87 -1.4616 3.1526 -3.9212 3.472 c5.22 0.72 2.6854 6.175 4.6562 6.175 c0.6186 0 0.802 -0.4662 0.9952 -0.4662 z M13.943000000000001 13.32 l1.0738 0.00019531 c2.4718 0 3.269 -1.758 3.269 -3.3132 c0 -1.7808 -0.8594 -2.8752 -3.1138 -2.8752 l-0.74779 0 c-0.2906 0 -0.48122 0.219 -0.48122 0.4618 l0 5.7264 z M29.014400000000002 6.695 c3.7924 0 5.998 2.8256 5.998 6.6456 s-2.2056 6.7882 -5.998 6.7882 c-3.7966 0 -5.998 -2.9682 -5.998 -6.7882 s2.2014 -6.6456 5.998 -6.6456 z M29.014400000000002 19.78558 c3.0958 0 4.1888 -3.0848 4.1888 -6.4448 s-1.093 -6.302 -4.1888 -6.302 s-4.1888 2.942 -4.1888 6.302 s1.093 6.4448 4.1888 6.4448 z M47.841 6.82 c0.093204 0 0.15803 0.064454 0.15803 0.15346 c0 0.093008 -0.064804 0.15781 -0.15781 0.15781 l-0.51801 0 c-0.2972 0 -0.48202 0.229 -0.48202 0.478 l0 12.39 l-0.7918 0 l-7.8248 -11.482 l0 10.692 c0 0.249 0.1848 0.478 0.48202 0.478 l0.51801 0 c0.093204 0 0.15801 0.064804 0.15801 0.15801 c0 0.089004 -0.064804 0.15381 -0.15801 0.15381 l-2.3448 0 c-0.093008 0 -0.15781 -0.064804 -0.15781 -0.15381 c0 -0.093204 0.064804 -0.15801 0.15781 -0.15801 l0.51801 0 c0.2972 0 0.48202 -0.229 0.48202 -0.478 l0 -11.601 c0 -0.249 -0.1848 -0.478 -0.48202 -0.478 l-0.51801 0 c-0.093008 0 -0.15781 -0.064804 -0.15781 -0.15781 c0 -0.089004 0.064804 -0.15381 0.15781 -0.15381 l2.1806 0 l7.4358 10.908 l0 -10.118 c0 -0.249 -0.1848 -0.478 -0.48202 -0.478 l-0.51801 0 c-0.093204 0 -0.15801 -0.064804 -0.15801 -0.15781 c0 -0.089004 0.064804 -0.15381 0.15801 -0.15381 l2.3448 0 z M59.22200000000001 6.82 l-0.00019531 3.4846 c0 0.093204 -0.064804 0.15801 -0.15801 0.15801 c-0.089004 0 -0.15381 -0.064804 -0.15381 -0.15801 l0 -0.80961 c0 -1.38 -0.82 -2.3634 -2.46 -2.3634 l-1.007 0 c-0.2906 0 -0.48122 0.219 -0.48122 0.4618 l0 11.631 c0 0.2436 0.1898 0.4636 0.48122 0.4636 l0.51801 0 c0.093204 0 0.15801 0.064804 0.15801 0.15381 c0 0.093204 -0.064804 0.15801 -0.15801 0.15801 l-3.702 0 c-0.093008 0 -0.15781 -0.064804 -0.15781 -0.15801 c0 -0.089004 0.064804 -0.15381 0.15781 -0.15381 l0.51801 0 c0.2906 0 0.48122 -0.2178 0.48122 -0.4618 l0 -11.631 c0 -0.2444 -0.1898 -0.4634 -0.48122 -0.4634 l-0.689 0 c-1.7986 0 -2.7772 0.8248 -2.7772 2.6806 l0 0.4924 c0 0.093204 -0.064804 0.15801 -0.15781 0.15801 c-0.089004 0 -0.15381 -0.064804 -0.15381 -0.15801 l0 -3.4848 l10.223 0 z M73.86900000000001 16.3572 c0.089004 0 0.154 0.065234 0.154 0.15844 l0 3.4848 l-9.002 0 c-0.093008 0 -0.15781 -0.064804 -0.15781 -0.15801 c0 -0.089004 0.064804 -0.15381 0.15781 -0.15381 l0.51801 0 c0.2906 0 0.48122 -0.219 0.48122 -0.4618 l0 -11.631 c0 -0.2436 -0.1898 -0.4636 -0.48122 -0.4636 l-0.51801 0 c-0.093008 0 -0.15781 -0.064804 -0.15781 -0.15381 c0 -0.093204 0.064804 -0.15801 0.15781 -0.15801 l8.9234 0 l0 3.4848 c0 0.093204 -0.064804 0.15801 -0.15781 0.15801 c-0.089004 0 -0.15381 -0.064804 -0.15381 -0.15801 l0 -0.80961 c0 -1.38 -0.82 -2.3634 -2.46 -2.3634 l-2.9678 0 c-0.2906 0 -0.48122 0.2178 -0.48122 0.4618 l0 5.3726 l1.5878 0 c1.6304 0 1.811 -0.5676 1.811 -1.4958 l0 -0.18279 c0 -0.089004 0.069004 -0.15801 0.15801 -0.15801 s0.15801 0.069004 0.15801 0.15801 l0 3.6772 c0 0.089004 -0.069004 0.15801 -0.15801 0.15801 s-0.15801 -0.064804 -0.15801 -0.17041 l0 -0.19859 c0 -0.8918 -0.1724 -1.4676 -1.811 -1.4676 l-1.5878 0 l0 5.9386 c0 0.2444 0.1898 0.4634 0.48122 0.4634 l3.0462 0 c1.64 0 2.46 -0.9834 2.46 -2.3634 l0 -0.80961 c0 -0.093204 0.064804 -0.15801 0.15781 -0.15801 z M87.32100000000001 6.82 c0.093204 0 0.15803 0.064454 0.15803 0.15346 c0 0.093008 -0.064804 0.15781 -0.15781 0.15781 l-0.51801 0 c-0.2972 0 -0.48202 0.229 -0.48202 0.478 l0 12.39 l-0.7918 0 l-7.8248 -11.482 l0 10.692 c0 0.249 0.1848 0.478 0.48202 0.478 l0.51801 0 c0.093204 0 0.15801 0.064804 0.15801 0.15801 c0 0.089004 -0.064804 0.15381 -0.15801 0.15381 l-2.3448 0 c-0.093008 0 -0.15781 -0.064804 -0.15781 -0.15381 c0 -0.093204 0.064804 -0.15801 0.15781 -0.15801 l0.51801 0 c0.2972 0 0.48202 -0.229 0.48202 -0.478 l0 -11.601 c0 -0.249 -0.1848 -0.478 -0.48202 -0.478 l-0.51801 0 c-0.093008 0 -0.15781 -0.064804 -0.15781 -0.15781 c0 -0.089004 0.064804 -0.15381 0.15781 -0.15381 l2.1806 0 l7.4358 10.908 l0 -10.118 c0 -0.249 -0.1848 -0.478 -0.48202 -0.478 l-0.51801 0 c-0.093204 0 -0.15801 -0.064804 -0.15801 -0.15781 c0 -0.089004 0.064804 -0.15381 0.15801 -0.15381 l2.3448 0 z M93.34960000000001 6.82 c4.167 0 7.3572 1.6604 7.3572 6.5004 c0 3.8 -2.831 6.68 -7.358 6.68 l-4.4688 0 c-0.093008 0 -0.15781 -0.064804 -0.15781 -0.15801 c0 -0.089004 0.064804 -0.15381 0.15781 -0.15381 l0.51801 0 c0.2906 0 0.48122 -0.219 0.48122 -0.4618 l0 -11.631 c0 -0.2436 -0.1898 -0.4636 -0.48122 -0.4636 l-0.51801 0 c-0.093008 0 -0.15781 -0.064804 -0.15781 -0.15381 c0 -0.093204 0.064804 -0.15801 0.15781 -0.15801 l4.4696 0 z M93.34880000000001 19.68864 c2.8572 0 5.5498 -2.2286 5.5498 -6.3686 c0 -4.18 -2.4718 -6.1882 -5.549 -6.1882 l-1.2856 0 c-0.2906 0 -0.48122 0.219 -0.48122 0.4618 l0 11.631 c0 0.2436 0.1898 0.4636 0.48122 0.4636 l1.2848 0 z M111.68960000000001 6.82 c4.167 0 7.3572 1.6604 7.3572 6.5004 c0 3.8 -2.831 6.68 -7.358 6.68 l-4.4688 0 c-0.093008 0 -0.15781 -0.064804 -0.15781 -0.15801 c0 -0.089004 0.064804 -0.15381 0.15781 -0.15381 l0.51801 0 c0.2906 0 0.48122 -0.219 0.48122 -0.4618 l0 -11.631 c0 -0.2436 -0.1898 -0.4636 -0.48122 -0.4636 l-0.51801 0 c-0.093008 0 -0.15781 -0.064804 -0.15781 -0.15381 c0 -0.093204 0.064804 -0.15801 0.15781 -0.15801 l4.4696 0 z M111.68880000000001 19.68864 c2.8572 0 5.5498 -2.2286 5.5498 -6.3686 c0 -4.18 -2.4718 -6.1882 -5.549 -6.1882 l-1.2856 0 c-0.2906 0 -0.48122 0.219 -0.48122 0.4618 l0 11.631 c0 0.2436 0.1898 0.4636 0.48122 0.4636 l1.2848 0 z M129.769 16.3572 c0.089004 0 0.154 0.065234 0.154 0.15844 l0 3.4848 l-9.002 0 c-0.093008 0 -0.15781 -0.064804 -0.15781 -0.15801 c0 -0.089004 0.064804 -0.15381 0.15781 -0.15381 l0.51801 0 c0.2906 0 0.48122 -0.219 0.48122 -0.4618 l0 -11.631 c0 -0.2436 -0.1898 -0.4636 -0.48122 -0.4636 l-0.51801 0 c-0.093008 0 -0.15781 -0.064804 -0.15781 -0.15381 c0 -0.093204 0.064804 -0.15801 0.15781 -0.15801 l8.9234 0 l0 3.4848 c0 0.093204 -0.064804 0.15801 -0.15781 0.15801 c-0.089004 0 -0.15381 -0.064804 -0.15381 -0.15801 l0 -0.80961 c0 -1.38 -0.82 -2.3634 -2.46 -2.3634 l-2.9678 0 c-0.2906 0 -0.48122 0.2178 -0.48122 0.4618 l0 5.3726 l1.5878 0 c1.6304 0 1.811 -0.5676 1.811 -1.4958 l0 -0.18279 c0 -0.089004 0.069004 -0.15801 0.15801 -0.15801 s0.15801 0.069004 0.15801 0.15801 l0 3.6772 c0 0.089004 -0.069004 0.15801 -0.15801 0.15801 s-0.15801 -0.064804 -0.15801 -0.17041 l0 -0.19859 c0 -0.8918 -0.1724 -1.4676 -1.811 -1.4676 l-1.5878 0 l0 5.9386 c0 0.2444 0.1898 0.4634 0.48122 0.4634 l3.0462 0 c1.64 0 2.46 -0.9834 2.46 -2.3634 l0 -0.80961 c0 -0.093204 0.064804 -0.15801 0.15781 -0.15801 z M144.389 6.82 c0.089004 0 0.1582 0.064804 0.1582 0.15381 c0 0.093008 -0.069004 0.15781 -0.15801 0.15781 l-0.48 0 c-0.52 0 -0.7558 0.26 -0.92 0.7 l-4.7614 12.241 l-0.37801 0 l-4.7042 -12.261 c-0.1442 -0.36 -0.42 -0.68 -0.98 -0.68 l-0.44 0 c-0.089004 0 -0.15801 -0.064804 -0.15801 -0.15781 c0 -0.089004 0.069004 -0.15381 0.15801 -0.15381 l4.5034 0 c0.089004 0 0.15801 0.064804 0.15801 0.15381 c0 0.093008 -0.069004 0.15781 -0.15801 0.15781 l-0.72 0 c-0.402 0 -0.62738 0.303 -0.47998 0.7 l3.7674 9.8886 l3.832 -9.8886 c0.14 -0.3616 -0.08039 -0.7 -0.48 -0.7 l-0.72 0 c-0.089004 0 -0.15801 -0.064804 -0.15801 -0.15781 c0 -0.089004 0.069004 -0.15381 0.15801 -0.15381 l2.9606 0 z M154.269 16.3572 c0.089004 0 0.154 0.065234 0.154 0.15844 l0 3.4848 l-9.002 0 c-0.093008 0 -0.15781 -0.064804 -0.15781 -0.15801 c0 -0.089004 0.064804 -0.15381 0.15781 -0.15381 l0.51801 0 c0.2906 0 0.48122 -0.219 0.48122 -0.4618 l0 -11.631 c0 -0.2436 -0.1898 -0.4636 -0.48122 -0.4636 l-0.51801 0 c-0.093008 0 -0.15781 -0.064804 -0.15781 -0.15381 c0 -0.093204 0.064804 -0.15801 0.15781 -0.15801 l8.9234 0 l0 3.4848 c0 0.093204 -0.064804 0.15801 -0.15781 0.15801 c-0.089004 0 -0.15381 -0.064804 -0.15381 -0.15801 l0 -0.80961 c0 -1.38 -0.82 -2.3634 -2.46 -2.3634 l-2.9678 0 c-0.2906 0 -0.48122 0.2178 -0.48122 0.4618 l0 5.3726 l1.5878 0 c1.6304 0 1.811 -0.5676 1.811 -1.4958 l0 -0.18279 c0 -0.089004 0.069004 -0.15801 0.15801 -0.15801 s0.15801 0.069004 0.15801 0.15801 l0 3.6772 c0 0.089004 -0.069004 0.15801 -0.15801 0.15801 s-0.15801 -0.064804 -0.15801 -0.17041 l0 -0.19859 c0 -0.8918 -0.1724 -1.4676 -1.811 -1.4676 l-1.5878 0 l0 5.9386 c0 0.2444 0.1898 0.4634 0.48122 0.4634 l3.0462 0 c1.64 0 2.46 -0.9834 2.46 -2.3634 l0 -0.80961 c0 -0.093204 0.064804 -0.15801 0.15781 -0.15801 z M165.211 16.5158 c0.089004 0 0.154 0.06463 0.154 0.15783 l0 3.3262 l-8.604 0 c-0.093008 0 -0.15781 -0.064804 -0.15781 -0.15801 c0 -0.089004 0.064804 -0.15381 0.15781 -0.15381 l0.51801 0 c0.2906 0 0.48122 -0.2178 0.48122 -0.4618 l0 -11.631 c0 -0.2444 -0.1898 -0.4634 -0.48122 -0.4634 l-0.51801 0 c-0.093008 0 -0.15781 -0.064804 -0.15781 -0.15381 c0 -0.093204 0.064804 -0.15801 0.15781 -0.15801 l3.702 0 c0.093008 0 0.15781 0.064804 0.15781 0.15801 c0 0.089004 -0.064804 0.15381 -0.15781 0.15381 l-0.51801 0 c-0.2906 0 -0.48122 0.219 -0.48122 0.4618 l0 11.631 c0 0.2436 0.1898 0.4636 0.48122 0.4636 l2.6482 0 c1.6276 0 2.46 -1.3048 2.46 -2.6516 l0 -0.36279 c0 -0.093204 0.064804 -0.15801 0.15781 -0.15801 z M172.7144 6.695 c3.7924 0 5.998 2.8256 5.998 6.6456 s-2.2056 6.7882 -5.998 6.7882 c-3.7966 0 -5.998 -2.9682 -5.998 -6.7882 s2.2014 -6.6456 5.998 -6.6456 z M172.7144 19.78558 c3.0958 0 4.1888 -3.0848 4.1888 -6.4448 s-1.093 -6.302 -4.1888 -6.302 s-4.1888 2.942 -4.1888 6.302 s1.093 6.4448 4.1888 6.4448 z M190.002 10.4828 c0 2.38 -1.8988 4.0814 -4.8084 4.0814 l-1.9106 0 l0 4.6606 c0 0.2436 0.1898 0.4636 0.48122 0.4636 l1.0062 0 c0.093008 0 0.15781 0.064804 0.15781 0.15801 c0 0.089004 -0.064804 0.15381 -0.15801 0.15381 l-4.1902 0 c-0.093008 0 -0.15781 -0.064804 -0.15781 -0.15801 c0 -0.089004 0.064804 -0.15381 0.15781 -0.15381 l0.51801 0 c0.2906 0 0.48122 -0.2178 0.48122 -0.4618 l0 -11.631 c0 -0.2444 -0.1898 -0.4634 -0.48122 -0.4634 l-0.51801 0 c-0.093008 0 -0.15781 -0.064804 -0.15781 -0.15381 c0 -0.093204 0.064804 -0.15801 0.15781 -0.15801 l4.6138 0 c2.9096 0 4.8082 1.4828 4.8082 3.6628 z M183.28300000000002 14.2524 l1.5476 0 c2.1772 0 3.3752 -1.6096 3.3752 -3.7696 c0 -1.82 -0.998 -3.351 -3.3752 -3.351 l-1.0664 0 c-0.2906 0 -0.48122 0.219 -0.48122 0.4618 l0 6.6588 z M200.50900000000001 16.3572 c0.089004 0 0.154 0.065234 0.154 0.15844 l0 3.4848 l-9.002 0 c-0.093008 0 -0.15781 -0.064804 -0.15781 -0.15801 c0 -0.089004 0.064804 -0.15381 0.15781 -0.15381 l0.51801 0 c0.2906 0 0.48122 -0.219 0.48122 -0.4618 l0 -11.631 c0 -0.2436 -0.1898 -0.4636 -0.48122 -0.4636 l-0.51801 0 c-0.093008 0 -0.15781 -0.064804 -0.15781 -0.15381 c0 -0.093204 0.064804 -0.15801 0.15781 -0.15801 l8.9234 0 l0 3.4848 c0 0.093204 -0.064804 0.15801 -0.15781 0.15801 c-0.089004 0 -0.15381 -0.064804 -0.15381 -0.15801 l0 -0.80961 c0 -1.38 -0.82 -2.3634 -2.46 -2.3634 l-2.9678 0 c-0.2906 0 -0.48122 0.2178 -0.48122 0.4618 l0 5.3726 l1.5878 0 c1.6304 0 1.811 -0.5676 1.811 -1.4958 l0 -0.18279 c0 -0.089004 0.069004 -0.15801 0.15801 -0.15801 s0.15801 0.069004 0.15801 0.15801 l0 3.6772 c0 0.089004 -0.069004 0.15801 -0.15801 0.15801 s-0.15801 -0.064804 -0.15801 -0.17041 l0 -0.19859 c0 -0.8918 -0.1724 -1.4676 -1.811 -1.4676 l-1.5878 0 l0 5.9386 c0 0.2444 0.1898 0.4634 0.48122 0.4634 l3.0462 0 c1.64 0 2.46 -0.9834 2.46 -2.3634 l0 -0.80961 c0 -0.093204 0.064804 -0.15801 0.15781 -0.15801 z M213.55600000000004 19.1628 c0.084804 0 0.13701 0.060606 0.13701 0.14121 c0 0.2382 -0.7188 0.82282 -1.6434 0.82282 c-3.9444 0 -0.1292 -6.491 -5.642 -6.491 l-0.70439 0 l0 5.589 c0 0.2436 0.1898 0.4636 0.48122 0.4636 l0.51801 0 c0.093008 0 0.15781 0.064804 0.15781 0.15381 c0 0.093204 -0.064804 0.15801 -0.15781 0.15801 l-3.702 0 c-0.093008 0 -0.15781 -0.064804 -0.15781 -0.15801 c0 -0.089004 0.064804 -0.15381 0.15781 -0.15381 l0.51801 0 c0.2906 0 0.48122 -0.2178 0.48122 -0.4618 l0 -11.631 c0 -0.2444 -0.1898 -0.4634 -0.48122 -0.4634 l-0.51801 0 c-0.093008 0 -0.15781 -0.064804 -0.15781 -0.15381 c0 -0.093204 0.064804 -0.15801 0.15781 -0.15801 l4.3834 0 c2.651 0 4.442 1.042 4.442 3.162 c0 1.87 -1.4616 3.1526 -3.9212 3.472 c5.22 0.72 2.6854 6.175 4.6562 6.175 c0.6186 0 0.802 -0.4662 0.9952 -0.4662 z M205.70300000000003 13.32 l1.0738 0.00019531 c2.4718 0 3.269 -1.758 3.269 -3.3132 c0 -1.7808 -0.8594 -2.8752 -3.1138 -2.8752 l-0.74779 0 c-0.2906 0 -0.48122 0.219 -0.48122 0.4618 l0 5.7264 z"/></g>
			</g>
		</svg>
	