
        <svg xmlns="http://www.w3.org/2000/svg" xmlns:xlink="http://www.w3.org/1999/xlink" version="1.1" width="3300" height="950.3088330262276" viewBox="0 0 3300 950.3088330262276">
			
			<g transform="scale(15) translate(10, 10)">
				<defs id="SvgjsDefs1764"/><g id="SvgjsG1765" featureKey="nameFeature-0" transform="matrix(1.6249593518411647,0,0,1.6249593518411647,-0.3249927953346761,-21.96944498201191)" fill="#fff"><path d="M25.04 39.6 c0.12 0 0.2 0.08 0.2 0.2 s-0.08 0.2 -0.2 0.2 l-8.08 0 c-0.12 0 -0.2 -0.08 -0.2 -0.2 s0.08 -0.2 0.2 -0.2 l1.44 0 c0.8 0 1.24 -0.6 0.96 -1.4 l-2.56 -6.92 l-10.52 0 l-2.64 6.92 c-0.28 0.72 0.16 1.4 0.96 1.4 l1.44 0 c0.12 0 0.2 0.08 0.2 0.2 s-0.08 0.2 -0.2 0.2 l-5.64 0 c-0.12 0 -0.2 -0.08 -0.2 -0.2 s0.08 -0.2 0.2 -0.2 l0.96 0 c1.04 0 1.52 -0.52 1.84 -1.4 l9.44 -24.68 l0.4 0 l9.16 24.72 c0.28 0.72 0.84 1.36 1.96 1.36 l0.88 0 z M6.44 30.880000000000003 l10.24 0 l-5.04 -13.6 z M48.36 13.64 c0.12 0 0.2 0.08 0.2 0.2 s-0.08 0.2 -0.2 0.2 l-1.16 0 c-0.52 0 -0.84 0.4 -0.84 0.84 l0 25.12 l-1.12 0 l-15.84 -23.92 l0 22.68 c0 0.44 0.32 0.84 0.84 0.84 l1.16 0 c0.12 0 0.2 0.08 0.2 0.2 s-0.08 0.2 -0.2 0.2 l-4.4 0 c-0.12 0 -0.2 -0.08 -0.2 -0.2 s0.08 -0.2 0.2 -0.2 l1.16 0 c0.52 0 0.84 -0.4 0.84 -0.84 l0 -23.88 c0 -0.44 -0.32 -0.84 -0.84 -0.84 l-1.16 0 c-0.12 0 -0.2 -0.08 -0.2 -0.2 s0.08 -0.2 0.2 -0.2 l3.84 0 l15.12 22.84 l0 -21.6 c0 -0.44 -0.32 -0.84 -0.84 -0.84 l-1.16 0 c-0.12 0 -0.2 -0.08 -0.2 -0.2 s0.08 -0.2 0.2 -0.2 l4.4 0 z M59.84 13.64 c7.92 0 14.36 3.32 14.36 13 c0 7.6 -5.72 13.36 -14.36 13.36 l-8.36 0 c-0.12 0 -0.2 -0.08 -0.2 -0.2 s0.08 -0.2 0.2 -0.2 l1.16 0 c0.52 0 0.84 -0.4 0.84 -0.84 l0 -23.88 c0 -0.44 -0.32 -0.84 -0.84 -0.84 l-1.16 0 c-0.12 0 -0.2 -0.08 -0.2 -0.2 s0.08 -0.2 0.2 -0.2 l8.36 0 z M59.84 39.6 c5.88 0 11.76 -4.68 11.76 -12.96 c0 -8.36 -5.44 -12.6 -11.76 -12.6 l-3 0 c-0.52 0 -0.84 0.4 -0.84 0.84 l0 23.88 c0 0.44 0.32 0.84 0.84 0.84 l3 0 z M97.83999999999999 38.4 c0.12 0 0.2 0.08 0.2 0.2 c0 0.32 -1.32 1.6 -3.08 1.6 c-7 0 0.44 -13.16 -10.92 -13.16 l-1.36 0 l0 11.72 c0 0.44 0.32 0.84 0.84 0.84 l1.16 0 c0.12 0 0.2 0.08 0.2 0.2 s-0.08 0.2 -0.2 0.2 l-6.52 0 c-0.12 0 -0.2 -0.08 -0.2 -0.2 s0.08 -0.2 0.2 -0.2 l1.16 0 c0.52 0 0.84 -0.4 0.84 -0.84 l0 -23.88 c0 -0.44 -0.32 -0.84 -0.84 -0.84 l-1.16 0 c-0.12 0 -0.2 -0.08 -0.2 -0.2 s0.08 -0.2 0.2 -0.2 l7.6 0 c4.88 0 8.52 1.96 8.52 6.2 c0 3.84 -3 6.44 -8.04 7 c10.72 1.32 5.52 12.6 9.56 12.6 c1.32 0 1.72 -1.04 2.04 -1.04 z M82.67999999999999 26.64 l2.04 0 c5.2 0 6.96 -3.64 6.96 -6.8 c0 -3.76 -1.76 -5.8 -6.36 -5.8 l-1.8 0 c-0.52 0 -0.84 0.4 -0.84 0.84 l0 11.76 z M123.07999999999998 39.6 c0.12 0 0.2 0.08 0.2 0.2 s-0.08 0.2 -0.2 0.2 l-8.08 0 c-0.12 0 -0.2 -0.08 -0.2 -0.2 s0.08 -0.2 0.2 -0.2 l1.44 0 c0.8 0 1.24 -0.6 0.96 -1.4 l-2.56 -6.92 l-10.52 0 l-2.64 6.92 c-0.28 0.72 0.16 1.4 0.96 1.4 l1.44 0 c0.12 0 0.2 0.08 0.2 0.2 s-0.08 0.2 -0.2 0.2 l-5.64 0 c-0.12 0 -0.2 -0.08 -0.2 -0.2 s0.08 -0.2 0.2 -0.2 l0.96 0 c1.04 0 1.52 -0.52 1.84 -1.4 l9.44 -24.68 l0.4 0 l9.16 24.72 c0.28 0.72 0.84 1.36 1.96 1.36 l0.88 0 z M104.47999999999999 30.880000000000003 l10.24 0 l-5.04 -13.6 z"/></g>
			</g>
		</svg>
	